<svg width="41" height="40" viewBox="0 0 41 40" fill="none" xmlns="http://www.w3.org/2000/svg">
<path d="M31.75 13.92C31.75 20.359 26.75 21.359 26.75 27.36C26.75 30.458 23.627 30.719 21.25 30.719C19.197 30.719 14.664 29.94 14.664 27.358C14.664 21.36 9.75 20.36 9.75 13.92C9.75 7.889 15.035 3 20.833 3C26.633 3 31.75 7.889 31.75 13.92Z" fill="#FFD983"/>
<path d="M24.917 35.36C24.917 36.188 22.683 37.86 20.75 37.86C18.817 37.86 16.583 36.188 16.583 35.36C16.583 34.532 18.816 34.86 20.75 34.86C22.683 34.86 24.917 34.532 24.917 35.36Z" fill="#CCD6DD"/>
<path d="M25.457 13.153C25.066 12.762 24.434 12.762 24.043 13.153L20.75 16.446L17.457 13.153C17.066 12.762 16.434 12.762 16.043 13.153C15.652 13.544 15.652 14.176 16.043 14.567L19.75 18.274V28.86C19.75 29.413 20.198 29.86 20.75 29.86C21.302 29.86 21.75 29.413 21.75 28.86V18.274L25.457 14.567C25.848 14.176 25.848 13.544 25.457 13.153Z" fill="#FFCC4D"/>
<path d="M26.75 33.86C26.75 34.964 25.854 35.86 24.75 35.86H16.75C15.646 35.86 14.75 34.964 14.75 33.86V27.86H26.75V33.86Z" fill="#99AAB5"/>
<path d="M14.749 34.86C14.269 34.86 13.845 34.513 13.764 34.024C13.673 33.48 14.041 32.964 14.586 32.874L26.586 30.874C27.13 30.776 27.646 31.151 27.736 31.696C27.827 32.24 27.459 32.756 26.914 32.846L14.914 34.846C14.859 34.856 14.803 34.86 14.749 34.86ZM14.749 30.86C14.269 30.86 13.845 30.513 13.764 30.024C13.673 29.48 14.041 28.964 14.586 28.874L26.586 26.874C27.13 26.777 27.646 27.151 27.736 27.696C27.827 28.24 27.459 28.756 26.914 28.846L14.914 30.846C14.859 30.856 14.803 30.86 14.749 30.86Z" fill="#CCD6DD"/>
</svg>
