<svg width="41" height="40" viewBox="0 0 41 40" fill="none" xmlns="http://www.w3.org/2000/svg">
<path d="M38.25 14.875C38.25 11.009 35.116 7.875 31.25 7.875C30.083 7.875 28.985 8.165 28.018 8.669C25.936 5.842 22.593 4 18.813 4C13.681 4 9.338 7.38 7.89 12.036C5.232 12.653 3.25 15.03 3.25 17.875C3.25 20.854 5.424 23.32 8.271 23.788C8.487 27.737 11.748 30.875 15.75 30.875C17.926 30.875 19.88 29.942 21.25 28.462C22.62 29.942 24.573 30.875 26.75 30.875C30.893 30.875 34.25 27.518 34.25 23.375C34.25 22.665 34.145 21.981 33.961 21.33C36.48 20.271 38.25 17.78 38.25 14.875Z" fill="#85C8F8"/>
<path d="M7.25 36.875C8.90685 36.875 10.25 35.5319 10.25 33.875C10.25 32.2181 8.90685 30.875 7.25 30.875C5.59315 30.875 4.25 32.2181 4.25 33.875C4.25 35.5319 5.59315 36.875 7.25 36.875Z" fill="#85C8F8"/>
</svg>
